<svg width="19" height="18" viewBox="0 0 19 18" fill="none" xmlns="http://www.w3.org/2000/svg">
<path d="M7.81917 4.40814C6.78772 2.493 5.88162 1 5.88162 1C5.88162 1 1 9.04351 1 11.7396C1 14.4356 3.18557 16.6212 5.88162 16.6212C8.57766 16.6212 10.7632 14.4356 10.7632 11.7396C10.7632 10.9594 10.3545 9.73153 9.77355 8.38034" stroke="black"/>
<path d="M8.48408 3.13796C9.15247 4.7163 10.4322 5.96128 12.0204 6.58882C10.4755 7.29038 9.23667 8.53181 8.53695 10.0723C7.90554 8.48549 6.65651 7.2056 5.06936 6.54089C6.60589 5.8979 7.83564 4.67178 8.48408 3.13796Z" stroke="black"/>
<path d="M15.5 15.5V2" stroke="black"/>
<path d="M12.5 5L15.5 2L18.5 5" stroke="black"/>
<path d="M15.5 2L15.5 15.5" stroke="black"/>
<path d="M18.5 12.5L15.5 15.5L12.5 12.5" stroke="black"/>
</svg>
